<?xml version="1.0" standalone="no"?>
<!DOCTYPE svg PUBLIC "-//W3C//DTD SVG 20010904//EN"
 "http://www.w3.org/TR/2001/REC-SVG-20010904/DTD/svg10.dtd">
<svg version="1.0" xmlns="http://www.w3.org/2000/svg"
 width="1114.000000pt" height="1114.000000pt" viewBox="0 0 1114.000000 1114.000000"
 preserveAspectRatio="xMidYMid meet">
<metadata>
Created by potrace 1.14, written by Peter Selinger 2001-2017
</metadata>
<g transform="translate(0.000000,1114.000000) scale(0.100000,-0.100000)"
fill="#000000" stroke="none">
<path d="M5888 9336 c-1 -2 -77 -6 -168 -9 -91 -4 -176 -9 -190 -11 -14 -3
-47 -7 -75 -10 -119 -14 -206 -31 -365 -73 -74 -20 -139 -39 -145 -43 -5 -4
-28 -13 -50 -20 -105 -34 -248 -116 -328 -190 -56 -50 -85 -68 -152 -90 -62
-20 -74 -23 -165 -40 -30 -6 -93 -20 -140 -31 -47 -12 -92 -22 -100 -24 -36
-9 -205 -76 -218 -88 -8 -6 -17 -11 -19 -9 -6 5 -122 -57 -196 -106 -106 -69
-797 -761 -797 -797 0 -4 -8 -19 -18 -33 -17 -25 -61 -122 -67 -147 -1 -5 -5
-17 -8 -25 -48 -123 -55 -479 -12 -645 9 -33 31 -83 49 -111 50 -74 195 -215
279 -270 123 -80 132 -87 221 -171 91 -87 173 -134 256 -150 25 -4 145 -7 268
-6 l222 1 1 -26 c1 -35 -2 -81 -7 -107 -3 -11 -7 -36 -10 -55 -2 -19 -9 -60
-15 -90 -6 -30 -12 -64 -14 -75 -1 -11 -6 -42 -11 -70 -15 -93 -10 -227 10
-265 24 -46 89 -107 135 -126 68 -29 201 -3 329 64 l32 17 -57 12 c-59 14 -78
25 -94 54 -19 36 40 63 209 94 15 3 47 10 72 15 77 16 174 31 295 45 28 3 66
8 85 10 180 22 296 27 630 28 286 1 541 -6 602 -18 13 -3 52 -7 88 -10 36 -3
76 -7 90 -10 14 -2 48 -7 75 -11 60 -7 79 -9 125 -18 19 -3 46 -8 60 -10 14
-2 36 -7 50 -10 25 -6 72 -14 122 -20 14 -2 31 -6 35 -9 5 -3 32 -9 59 -12 27
-4 57 -9 68 -12 12 -3 16 -1 12 6 -4 6 -26 16 -49 23 -52 14 -48 13 -72 22
-41 16 -72 26 -160 51 -111 33 -261 74 -295 81 -14 3 -50 11 -80 19 -144 35
-206 38 -865 39 -653 0 -748 -3 -887 -34 -51 -12 -102 -23 -113 -25 -11 -2
-47 -11 -80 -20 -126 -33 -211 -37 -230 -11 -7 9 -11 32 -9 51 2 28 41 255 59
345 36 185 34 180 82 226 25 24 51 44 58 44 7 0 15 4 17 8 7 17 243 112 313
125 11 2 27 7 35 10 8 3 51 13 95 22 44 8 91 17 105 20 81 16 202 20 620 20
414 -1 736 -9 795 -21 11 -2 53 -7 94 -10 41 -3 78 -7 81 -9 4 -2 35 -9 71
-14 35 -6 75 -13 89 -16 35 -7 68 -13 115 -20 23 -3 50 -7 60 -9 11 -2 43 -7
70 -10 28 -4 61 -9 75 -11 14 -3 51 -7 83 -10 31 -2 61 -6 66 -10 5 -3 12 -1
15 4 5 8 -67 33 -103 36 -9 0 -22 4 -29 9 -6 4 -16 5 -21 1 -5 -3 -12 -2 -15
3 -2 4 -17 9 -33 10 -41 4 -57 7 -68 14 -9 5 -52 14 -110 22 -11 2 -54 10 -95
19 -41 9 -91 19 -110 22 -19 3 -48 8 -65 11 -16 3 -43 7 -60 9 -16 2 -30 4
-30 5 0 1 -9 3 -20 4 -11 2 -44 6 -74 10 -30 4 -63 10 -75 12 -29 5 -84 13
-136 19 -98 11 -147 16 -185 22 -96 12 -304 25 -425 26 -106 1 -319 -10 -362
-18 -13 -3 -47 -8 -77 -11 -30 -3 -64 -8 -75 -10 -12 -3 -34 -7 -51 -9 -41 -5
-85 -13 -115 -20 -14 -3 -38 -8 -55 -10 -16 -3 -37 -8 -46 -11 -10 -2 -30 -7
-45 -9 -16 -2 -54 -11 -84 -20 -30 -9 -63 -18 -73 -20 -9 -2 -22 -7 -27 -10
-5 -3 -18 -8 -27 -10 -10 -2 -76 -24 -148 -50 -152 -55 -175 -60 -176 -43 0 7
-2 22 -4 33 -14 69 -4 134 28 180 26 37 41 50 92 77 32 17 152 57 170 57 3 0
18 2 33 5 15 3 39 8 55 10 15 3 35 7 45 10 15 4 60 12 117 21 11 2 58 10 105
19 82 15 131 23 215 31 22 3 60 7 85 10 119 13 167 17 190 15 33 -2 39 -2 85
6 92 17 712 9 890 -11 22 -2 63 -6 90 -9 28 -3 50 -5 50 -6 0 -1 14 -3 30 -5
25 -4 118 -18 190 -30 11 -2 27 -6 35 -9 8 -3 29 -7 45 -10 17 -3 59 -12 95
-21 36 -9 72 -18 80 -20 8 -2 15 -4 15 -5 0 -1 9 -3 20 -5 50 -10 418 -142
442 -159 1 -1 5 -58 8 -126 3 -69 8 -159 10 -200 6 -84 16 -278 18 -357 1 -29
5 -53 10 -53 4 0 7 3 8 8 0 4 2 15 4 24 2 9 6 34 9 55 3 21 7 47 10 58 2 11 7
45 10 76 4 31 9 67 11 80 3 13 8 40 11 59 4 19 9 44 11 55 2 11 6 31 9 44 3
13 12 40 20 60 16 38 19 49 28 120 3 24 7 46 9 47 2 2 23 6 47 10 116 16 180
33 308 80 78 29 184 84 202 105 3 3 15 12 28 21 142 97 253 282 244 408 -7
111 -4 128 37 219 23 50 41 97 41 104 0 8 3 17 8 21 4 4 7 11 8 14 0 4 8 32
18 63 18 60 24 86 32 134 3 17 9 46 13 65 8 40 6 110 -5 155 -3 17 -8 37 -9
45 -1 8 -5 22 -7 30 -3 8 -11 35 -19 60 -19 66 -115 266 -139 290 -3 3 -18 22
-33 42 -149 200 -372 332 -737 437 -41 12 -91 26 -110 32 -20 6 -48 12 -63 12
-15 1 -27 4 -27 7 0 3 -8 6 -17 7 -10 1 -31 4 -48 8 -16 3 -55 8 -85 11 -51 4
-169 34 -215 53 -11 5 -42 18 -70 29 -27 11 -77 33 -110 48 -33 16 -69 30 -79
31 -11 2 -24 7 -30 12 -15 10 -164 55 -208 61 -4 1 -22 6 -40 11 -36 10 -132
28 -188 35 -19 2 -53 6 -75 9 -22 3 -83 8 -135 11 -52 3 -100 7 -107 9 -6 2
-13 2 -15 1z m207 -200 c115 -8 233 -24 247 -33 7 -4 22 -8 75 -19 12 -2 34
-9 48 -14 14 -5 25 -8 25 -5 0 2 27 -7 60 -20 33 -13 60 -20 60 -17 0 4 4 2 8
-3 4 -6 25 -16 47 -24 89 -31 256 -121 292 -157 8 -8 18 -14 22 -14 4 0 48
-40 97 -88 132 -131 219 -251 259 -361 l14 -36 0 45 c1 43 -26 148 -48 187
-22 40 -101 213 -101 222 0 5 6 11 14 14 14 6 104 0 146 -9 23 -5 38 -8 82
-17 10 -2 21 -6 24 -10 4 -4 15 -7 25 -7 49 0 335 -134 455 -213 85 -56 152
-120 202 -193 23 -35 72 -139 72 -155 0 -9 3 -19 6 -22 17 -17 25 -374 11
-442 -4 -16 -9 -41 -12 -54 -11 -59 -54 -154 -76 -171 -3 -3 -12 -16 -19 -29
-6 -13 -24 -37 -38 -53 -40 -45 -44 -63 -19 -95 12 -15 24 -30 27 -33 12 -11
27 -56 24 -73 -6 -42 -62 -132 -114 -186 -92 -95 -213 -153 -370 -177 -32 -5
-204 -4 -254 1 -176 17 -236 44 -236 105 0 26 44 172 73 240 6 14 11 27 12 30
3 9 17 42 56 135 60 142 114 248 141 275 14 14 29 36 33 50 7 23 91 158 106
170 10 8 21 50 13 50 -20 0 -82 -61 -139 -138 -36 -48 -68 -91 -73 -97 -43
-55 -185 -299 -277 -480 -64 -125 -96 -181 -115 -203 -11 -13 -20 -12 -140 3
-40 6 -143 24 -170 30 -14 3 -36 8 -50 10 -40 5 -131 23 -185 35 -27 6 -63 14
-80 16 -65 9 -90 20 -89 40 4 55 18 112 39 159 26 61 33 89 40 165 14 145 26
464 18 456 -5 -5 -24 -75 -78 -296 -7 -28 -53 -145 -79 -202 -14 -31 -26 -61
-26 -67 0 -5 -4 -11 -9 -13 -5 -1 -11 -9 -13 -17 -2 -8 -18 -41 -35 -74 -18
-32 -33 -62 -33 -66 0 -10 -33 -28 -65 -35 -48 -10 -203 -18 -590 -32 -104 -3
-219 -7 -255 -9 -64 -2 -93 9 -155 58 -5 4 -35 26 -65 49 -113 83 -261 238
-309 322 -28 50 -77 164 -86 201 -1 6 -4 17 -8 25 -3 8 -10 35 -16 60 -41 160
-57 289 -65 512 -4 91 -12 121 -27 97 -10 -17 -28 -101 -36 -167 -8 -71 -8
-351 1 -402 4 -25 9 -58 12 -74 3 -16 7 -33 10 -38 3 -5 8 -24 11 -41 2 -18 9
-36 14 -41 5 -6 9 -16 9 -23 0 -13 77 -179 92 -198 5 -5 31 -41 59 -80 29 -38
85 -104 127 -147 87 -89 111 -123 105 -147 -5 -22 -59 -55 -77 -48 -8 3 -17 2
-22 -3 -5 -5 -22 -11 -39 -14 -16 -3 -90 -26 -163 -50 -73 -25 -133 -45 -135
-44 -3 0 -63 -10 -102 -18 -37 -7 -30 -7 -151 0 -127 6 -183 13 -259 32 -60
14 -166 53 -175 63 -3 3 -17 12 -33 20 -15 8 -27 18 -27 23 0 4 -5 8 -12 8 -6
0 -18 7 -27 15 -9 8 -38 34 -65 58 -116 99 -185 180 -236 272 -19 35 -39 67
-43 72 -17 16 6 -73 32 -127 112 -227 238 -356 476 -485 86 -46 143 -86 150
-103 3 -8 1 -42 -5 -75 -5 -34 -12 -83 -15 -109 -14 -107 -35 -130 -130 -144
-59 -9 -197 -9 -240 0 -130 28 -209 71 -252 138 -15 24 -33 46 -40 51 -7 4
-19 14 -27 22 -8 9 -46 32 -83 52 -37 20 -82 46 -100 59 -17 13 -34 24 -37 24
-3 0 -23 17 -45 38 -36 35 -118 152 -106 152 3 0 1 8 -4 18 -14 27 -21 114
-21 257 1 185 9 244 47 332 9 21 17 41 17 44 3 24 118 190 168 243 78 80 97
85 116 31 8 -22 16 -53 19 -70 11 -70 22 -120 33 -150 12 -31 30 -33 31 -2 11
183 19 255 33 297 21 61 78 170 88 170 4 0 8 4 8 9 0 41 148 200 257 276 74
52 254 145 318 165 22 7 46 17 53 23 6 5 12 6 12 2 0 -4 7 -2 15 5 8 7 15 10
15 7 0 -4 19 0 41 8 23 9 107 29 187 45 80 17 171 41 202 53 47 19 193 108
210 128 13 15 240 137 270 144 3 1 18 7 34 14 79 32 267 85 341 96 22 3 51 8
65 10 54 10 97 15 158 19 35 2 65 6 67 8 6 6 354 1 450 -6z"/>
<path d="M5856 6371 c-9 -10 -21 -33 -27 -52 -13 -46 -20 -227 -8 -234 5 -4 9
3 9 14 0 27 21 71 34 72 6 1 26 3 44 5 80 6 131 44 138 101 4 31 0 44 -20 67
-14 16 -26 26 -26 22 0 -3 -13 0 -30 9 -40 21 -93 19 -114 -4z m82 -11 c1 -2
5 -3 10 -4 37 -8 75 -66 63 -99 -16 -43 -105 -67 -136 -36 -18 17 -11 120 9
134 14 11 43 13 54 5z"/>
<path d="M6214 6354 c-73 -38 -114 -107 -107 -180 5 -64 17 -89 56 -118 73
-56 173 -39 197 33 14 44 6 81 -18 82 -9 0 -25 2 -34 4 -10 2 -20 -1 -24 -6
-3 -5 1 -9 9 -9 20 0 67 -39 48 -40 -8 0 -12 -3 -8 -6 7 -8 -21 -38 -49 -52
-24 -12 -57 -9 -91 9 -25 14 -63 84 -63 117 0 54 53 127 101 137 28 6 79 -14
107 -41 16 -17 32 -18 32 -3 0 19 -42 53 -92 73 -31 13 -38 13 -64 0z"/>
<path d="M6479 6328 c0 -7 -2 -29 -4 -48 -2 -19 -6 -71 -9 -115 -3 -44 -8 -91
-11 -104 -2 -14 -1 -20 3 -15 5 5 19 53 32 107 13 53 27 97 30 97 3 0 12 -28
19 -62 15 -76 51 -180 65 -190 13 -8 35 25 83 122 66 135 85 125 69 -35 -7
-66 5 -65 21 1 13 52 11 216 -2 221 -5 1 -22 -16 -37 -40 -36 -58 -113 -210
-110 -219 1 -5 -2 -8 -6 -8 -5 0 -18 35 -31 78 -24 83 -32 104 -66 171 -22 45
-44 64 -46 39z"/>
<path d="M4554 6288 c-50 -35 -71 -76 -71 -138 -1 -30 6 -68 15 -85 16 -31 60
-74 77 -76 6 0 19 -2 30 -5 36 -7 122 26 133 51 16 34 5 36 -35 9 -19 -13 -39
-21 -43 -19 -5 3 -11 1 -14 -4 -14 -23 -98 19 -117 58 -42 92 0 189 91 206 27
5 82 -14 97 -34 7 -9 12 -11 12 -6 0 17 -22 40 -52 53 -41 18 -88 14 -123 -10z"/>
<path d="M5429 6293 c-17 -7 -28 -17 -24 -23 4 -7 12 -7 18 -2 7 4 23 8 37 8
40 -2 33 -26 -48 -163 -28 -48 -30 -54 -14 -62 22 -12 99 -3 135 16 39 20 30
25 -26 14 -66 -12 -76 -2 -49 51 12 24 35 66 51 93 43 71 41 86 -9 83 -22 -1
-54 -8 -71 -15z"/>
<path d="M4831 6175 c3 -87 8 -123 21 -148 l18 -32 -6 60 c-3 33 -8 63 -10 67
-3 4 0 9 5 12 5 3 7 14 4 24 -6 26 34 72 62 72 21 0 63 -32 66 -49 0 -3 2 -13
5 -21 2 -8 8 -34 13 -58 14 -71 29 -71 24 -1 -4 73 -34 134 -72 147 -14 5 -43
7 -64 5 -32 -4 -39 -1 -44 16 -3 12 -10 21 -15 21 -6 0 -8 -46 -7 -115z"/>
<path d="M5152 6270 c-29 -12 -61 -83 -57 -126 6 -62 69 -114 139 -114 41 0
83 32 63 48 -8 7 -18 7 -27 2 -8 -5 -18 -6 -22 -4 -4 3 -8 1 -8 -4 0 -28 -82
-16 -94 13 -14 37 28 75 72 66 7 -1 29 3 48 9 44 15 46 47 4 90 -31 32 -71 38
-118 20z m101 -34 c17 -13 24 -45 10 -47 -5 -1 -25 -3 -45 -4 -21 -1 -40 -4
-44 -7 -9 -10 -44 4 -44 17 0 21 50 55 79 55 14 0 34 -7 44 -14z"/>
<path d="M1613 6174 c-9 -23 48 -87 91 -101 20 -7 60 -24 89 -37 83 -38 252
-119 372 -177 61 -29 113 -53 117 -54 4 0 13 -6 20 -12 6 -7 16 -13 20 -13 5
0 79 -34 166 -76 227 -110 286 -138 292 -139 3 -1 46 -21 95 -44 50 -24 107
-50 127 -58 21 -8 36 -19 33 -23 -8 -12 17 -28 57 -35 22 -4 55 -23 80 -44 34
-31 41 -44 41 -73 0 -51 -25 -72 -87 -74 -28 -2 -55 0 -61 4 -5 3 -37 16 -70
28 -87 30 -227 102 -266 135 -19 16 -40 29 -47 29 -11 0 -141 60 -352 163 -47
23 -88 46 -92 52 -4 5 -8 7 -8 3 0 -4 -120 54 -267 128 -148 74 -268 134 -268
133 0 -2 -177 80 -197 91 -20 11 -52 13 -61 4 -3 -3 1 -20 10 -38 19 -40 92
-93 219 -160 137 -72 386 -205 404 -216 8 -5 22 -11 30 -14 8 -3 71 -36 140
-72 69 -36 181 -95 250 -130 253 -131 307 -160 398 -214 52 -30 104 -61 116
-67 13 -7 44 -33 69 -57 39 -37 45 -48 41 -72 -7 -43 -49 -73 -95 -69 -51 6
-164 53 -334 140 -163 84 -152 78 -419 234 -114 67 -208 121 -211 121 -5 0
-242 134 -265 150 -8 6 -27 16 -42 23 -16 6 -28 15 -28 19 0 4 -7 8 -15 8 -8
0 -15 5 -15 10 0 6 -4 10 -9 10 -5 0 -53 26 -108 58 -109 65 -185 102 -208
102 -25 0 -38 -37 -25 -75 8 -26 23 -40 63 -60 29 -15 59 -33 68 -41 8 -8 19
-14 23 -14 7 0 88 -51 96 -61 3 -3 20 -12 38 -20 17 -8 32 -17 32 -20 0 -4 8
-9 18 -12 9 -4 40 -20 67 -37 28 -17 58 -33 68 -37 9 -3 17 -9 17 -14 0 -5 5
-9 11 -9 6 0 30 -12 53 -27 22 -16 55 -35 71 -43 17 -8 41 -22 55 -31 26 -17
271 -162 350 -207 25 -14 63 -36 85 -50 22 -14 41 -24 41 -21 1 2 10 -3 20
-12 24 -20 243 -149 254 -149 5 0 10 -3 12 -8 2 -4 27 -22 56 -41 68 -43 92
-78 92 -133 0 -66 -9 -73 -87 -72 -77 1 -116 19 -316 146 -60 37 -112 68 -117
68 -4 0 -13 7 -20 15 -7 9 -28 23 -46 31 -19 9 -34 20 -34 25 0 5 -5 9 -11 9
-6 0 -43 23 -83 50 -40 28 -78 50 -84 50 -7 0 -12 5 -12 10 0 6 -5 10 -10 10
-6 0 -16 5 -23 11 -7 6 -62 43 -123 82 -60 40 -153 100 -205 133 -51 34 -148
96 -214 138 -66 41 -125 79 -131 83 -24 18 -99 56 -125 63 -43 13 -47 -16 -7
-57 32 -34 158 -131 268 -208 30 -21 80 -60 111 -86 31 -27 59 -49 63 -49 10
0 566 -362 611 -397 6 -4 93 -63 195 -130 163 -107 293 -179 340 -188 8 -2 44
-11 80 -21 88 -23 284 -28 370 -8 80 19 150 50 218 98 28 20 56 36 61 36 5 0
42 -19 83 -43 88 -53 149 -87 246 -139 107 -57 116 -62 123 -71 3 -5 8 -8 10
-7 7 2 51 -19 94 -45 22 -13 51 -29 63 -35 13 -5 54 -28 90 -49 77 -44 141
-80 232 -129 36 -19 88 -47 115 -62 28 -15 91 -49 140 -74 50 -25 100 -55 112
-65 32 -30 83 -48 128 -45 57 3 74 8 151 45 38 17 71 31 74 31 3 0 11 4 17 10
7 5 38 18 70 28 72 22 80 45 29 86 -38 32 -33 29 -261 140 -88 43 -172 86
-187 97 -16 10 -28 15 -28 12 0 -4 -15 2 -32 13 -18 11 -125 66 -238 123 -113
57 -207 106 -210 109 -3 3 -97 52 -210 108 -467 236 -440 221 -441 250 -1 15
-3 43 -5 62 -2 19 -6 67 -9 105 -7 79 -8 85 -20 139 -10 49 -19 67 -72 137
-79 106 -184 202 -278 255 -11 6 -36 20 -55 32 -43 26 -119 62 -131 62 -5 0
-9 5 -9 10 0 6 -4 10 -9 10 -5 0 -30 10 -57 22 -27 12 -51 23 -54 23 -7 2 -40
16 -85 35 -22 10 -110 45 -195 78 -332 130 -587 231 -625 248 -22 10 -42 18
-45 19 -3 1 -18 7 -33 13 -16 7 -30 12 -31 12 -2 0 -21 8 -42 17 -22 9 -42 18
-46 19 -5 1 -10 3 -13 4 -3 1 -8 3 -12 4 -5 1 -34 14 -67 29 -32 15 -64 27
-70 27 -7 0 -16 4 -21 8 -15 13 -134 62 -151 62 -8 0 -17 -7 -21 -16z"/>
<path d="M9077 6094 c-1 -1 -40 -4 -87 -7 -72 -4 -151 -23 -270 -63 -8 -3 -16
-5 -17 -5 -5 0 -137 -49 -243 -91 -58 -23 -111 -48 -118 -55 -7 -7 -17 -13
-22 -13 -15 0 -190 -150 -241 -205 -79 -85 -139 -168 -146 -200 -8 -41 -13
-56 -17 -63 -6 -11 -18 -115 -20 -185 -2 -47 4 -93 20 -167 19 -89 24 -80 -83
-136 -54 -28 -127 -67 -163 -86 -36 -19 -123 -66 -195 -103 -71 -38 -183 -96
-248 -131 -65 -34 -152 -80 -195 -101 -42 -21 -79 -40 -82 -43 -3 -3 -52 -30
-110 -59 -103 -53 -238 -123 -395 -206 -78 -42 -249 -131 -430 -225 -49 -26
-137 -72 -195 -102 -58 -30 -154 -81 -215 -113 -314 -164 -331 -173 -825 -434
-63 -34 -153 -80 -200 -103 -47 -23 -87 -45 -90 -48 -3 -3 -45 -25 -95 -50
-49 -25 -125 -64 -167 -87 -43 -22 -78 -38 -78 -35 0 4 -4 2 -8 -4 -4 -6 -41
-27 -82 -48 -41 -21 -142 -73 -225 -117 -82 -43 -188 -98 -235 -121 -47 -24
-87 -46 -90 -49 -3 -4 -30 -19 -60 -34 -99 -50 -227 -134 -259 -170 -54 -61
-81 -196 -53 -265 8 -19 15 -41 16 -49 4 -21 67 -81 109 -102 36 -19 99 -26
142 -15 45 10 173 70 250 116 28 17 69 40 93 52 23 12 42 26 42 30 0 4 4 8 10
8 5 0 51 25 102 56 51 32 103 62 115 68 13 6 23 14 23 19 0 4 5 7 10 7 6 0 41
19 78 41 37 23 81 49 97 59 70 41 691 411 705 420 8 6 22 13 30 17 8 3 39 21
68 40 29 18 54 33 57 33 3 0 35 19 72 42 38 22 82 49 98 58 69 40 640 377 680
401 17 11 40 23 53 29 13 6 30 17 38 25 9 8 22 15 30 15 8 0 14 5 14 10 0 6 4
10 9 10 5 0 47 23 93 51 46 28 148 90 228 137 187 110 186 109 314 182 61 34
139 81 175 105 56 35 150 91 301 178 19 11 64 36 100 55 36 20 67 40 68 44 2
4 10 8 17 8 7 0 15 4 17 8 4 11 304 192 318 192 5 0 10 4 10 9 0 5 8 11 18 14
27 9 131 69 201 117 57 39 71 44 121 44 37 1 62 -4 72 -14 60 -59 135 -103
243 -142 65 -24 91 -32 155 -45 129 -27 479 106 669 255 93 72 263 237 326
317 22 27 48 59 58 70 76 83 186 286 228 420 19 61 20 65 21 145 1 96 -24 154
-102 230 -51 50 -140 104 -193 117 -42 9 -112 24 -147 29 -33 6 -308 13 -313
8z"/>
<path d="M6225 3408 c-123 -62 -305 -179 -305 -197 0 -9 185 -121 200 -121 5
0 10 -4 10 -9 0 -5 10 -13 23 -18 24 -9 289 -154 297 -163 3 -3 28 -17 55 -31
28 -14 172 -93 320 -176 324 -181 524 -291 625 -346 41 -22 77 -44 78 -49 2
-4 12 -8 22 -8 10 0 21 -4 25 -10 10 -16 195 -100 304 -137 60 -20 159 -20
199 1 18 9 43 34 57 55 60 91 38 162 -87 283 -44 43 -85 78 -89 78 -4 0 -14 6
-21 13 -7 7 -49 35 -93 61 -44 26 -87 51 -95 56 -8 5 -55 30 -105 56 -49 25
-144 74 -210 109 -302 157 -936 479 -1053 534 -89 42 -107 44 -157 19z"/>
</g>
</svg>
