<?xml version="1.0" standalone="no"?>
<!DOCTYPE svg PUBLIC "-//W3C//DTD SVG 20010904//EN"
 "http://www.w3.org/TR/2001/REC-SVG-20010904/DTD/svg10.dtd">
<svg version="1.0" xmlns="http://www.w3.org/2000/svg"
 width="418.000000pt" height="320.000000pt" viewBox="0 0 418.000000 320.000000"
 preserveAspectRatio="xMidYMid meet">

<g transform="translate(0.000000,320.000000) scale(0.100000,-0.100000)"
fill="#000000" stroke="none">
<path d="M2085 3008 c-168 -16 -311 -66 -376 -131 -24 -23 -51 -34 -124 -47
-129 -23 -251 -83 -312 -153 -24 -27 -70 -73 -186 -185 -44 -42 -74 -101 -88
-170 -13 -70 -7 -182 12 -227 16 -37 89 -109 132 -131 18 -9 46 -31 62 -49 59
-62 98 -72 255 -62 40 2 39 14 14 -128 -17 -103 -14 -127 23 -161 31 -29 66
-30 122 -5 l42 18 -30 6 c-34 7 -42 33 -13 40 235 65 622 72 891 16 52 -10 97
-19 100 -18 15 2 -115 43 -209 67 -100 25 -117 26 -375 26 -245 0 -278 -2
-355 -22 -108 -28 -130 -28 -130 -2 0 18 18 118 35 197 10 43 128 92 274 114
92 13 474 6 566 -10 128 -23 249 -41 252 -37 5 4 -11 8 -137 35 -155 33 -377
61 -489 61 -130 0 -311 -30 -416 -70 -44 -16 -83 -30 -87 -30 -5 0 -8 17 -8
38 0 54 32 81 117 98 166 34 248 44 398 50 250 10 456 -19 630 -88 l60 -24 6
-120 c4 -65 7 -135 9 -154 1 -19 9 14 16 75 8 60 19 114 24 119 6 6 10 23 10
38 0 23 4 28 26 28 14 0 59 11 101 25 120 41 203 140 187 224 -4 17 2 40 14
61 11 19 27 67 37 106 15 66 15 75 0 135 -31 121 -112 215 -230 268 -65 30
-217 71 -261 71 -19 0 -70 17 -117 39 -128 61 -297 86 -472 69z m245 -72 c63
-6 174 -42 238 -77 77 -42 169 -144 185 -205 3 -14 5 -12 6 9 0 15 -12 54 -29
87 -16 33 -30 62 -30 65 0 11 61 4 118 -14 72 -22 179 -80 208 -113 57 -64 69
-98 69 -198 -1 -97 -13 -133 -63 -192 -13 -16 -13 -20 1 -36 23 -25 21 -40 -9
-84 -40 -57 -116 -91 -202 -89 -97 2 -136 12 -140 38 -4 29 94 263 110 263 4
0 8 5 8 12 0 6 12 26 26 45 14 19 24 36 22 38 -15 16 -108 -113 -173 -241 -27
-55 -53 -102 -58 -105 -4 -3 -66 6 -138 20 l-130 26 6 35 c4 19 11 41 17 47 6
7 12 64 14 125 l4 113 -19 -82 c-17 -71 -36 -118 -84 -209 -10 -20 -21 -21
-191 -27 l-179 -6 -41 29 c-37 26 -57 44 -107 98 -49 51 -89 196 -89 320 -1
98 -21 54 -28 -58 -8 -144 36 -257 137 -354 31 -30 38 -43 30 -53 -7 -7 -18
-13 -26 -13 -8 0 -49 -12 -90 -26 -65 -23 -88 -26 -157 -21 -54 3 -97 12 -131
27 -57 26 -147 113 -169 161 -8 19 -15 28 -15 20 -2 -31 54 -124 98 -163 25
-22 71 -53 101 -67 33 -17 54 -33 52 -41 -2 -8 -6 -36 -9 -62 -6 -46 -6 -47
-49 -56 -76 -16 -174 14 -189 59 -3 10 -31 30 -62 45 -36 19 -65 42 -82 68
-23 35 -26 49 -26 130 0 78 4 99 26 146 27 56 85 124 99 115 4 -3 11 -24 14
-47 11 -72 26 -81 26 -16 0 67 9 92 56 163 59 89 192 159 351 185 38 7 71 20
98 40 100 75 215 117 355 129 92 8 124 7 240 -3z"/>
<path d="M2186 1879 c-3 -17 -5 -48 -5 -68 2 -30 3 -31 6 -8 4 22 10 27 32 27
48 0 71 49 32 70 -37 19 -58 12 -65 -21z m63 7 c17 -20 3 -46 -25 -46 -20 0
-24 5 -24 30 0 23 5 30 19 30 10 0 24 -6 30 -14z"/>
<path d="M2310 1880 c-25 -25 -26 -72 -2 -93 34 -31 82 -16 82 25 0 12 -7 18
-22 17 -17 -1 -19 -2 -5 -6 21 -5 22 -17 2 -33 -34 -28 -83 29 -58 68 19 31
41 37 62 18 12 -11 21 -14 21 -8 0 12 -31 32 -49 32 -6 0 -20 -9 -31 -20z"/>
<path d="M1812 1840 c-1 -30 3 -62 9 -70 8 -11 9 -8 4 13 -8 39 2 67 25 67 14
0 21 -11 28 -42 9 -38 10 -40 11 -12 1 40 -20 69 -47 62 -16 -4 -22 -1 -25 16
-2 11 -5 -4 -5 -34z"/>
<path d="M2430 1876 c0 -7 -2 -35 -5 -62 l-4 -49 12 49 13 49 13 -52 c7 -28
16 -51 20 -51 5 0 16 18 26 40 27 59 37 60 31 4 -4 -35 -3 -42 3 -24 11 32 13
100 3 100 -4 0 -19 -24 -34 -52 l-25 -53 -18 58 c-17 53 -35 75 -35 43z"/>
<path d="M1697 1862 c-30 -33 -17 -91 23 -104 20 -7 60 9 60 24 0 9 -3 9 -12
0 -21 -21 -57 -14 -70 13 -24 52 31 99 72 63 12 -11 12 -10 1 5 -17 22 -54 22
-74 -1z"/>
<path d="M2030 1869 c-12 -8 -10 -9 8 -4 27 8 28 -1 2 -43 -11 -18 -20 -35
-20 -37 0 -9 45 -5 60 5 11 8 8 9 -12 4 -33 -7 -35 1 -8 41 11 17 20 33 20 38
0 11 -33 8 -50 -4z"/>
<path d="M1920 1851 c-15 -29 -12 -46 9 -65 20 -18 61 -14 61 5 0 6 -8 5 -20
-1 -23 -12 -40 -6 -40 16 0 9 11 14 30 14 31 0 39 17 18 38 -18 18 -46 14 -58
-7z m58 -8 c2 -9 -7 -13 -28 -13 -28 0 -31 2 -20 15 15 18 41 16 48 -2z"/>
<path d="M605 1831 c-6 -11 21 -41 37 -41 5 0 115 -52 244 -115 130 -63 240
-115 245 -115 5 0 9 -4 9 -10 0 -5 8 -10 18 -10 11 0 27 -9 38 -21 24 -26 8
-55 -30 -52 -28 2 -138 52 -144 66 -2 4 -8 7 -14 7 -5 0 -108 50 -229 110
-120 61 -224 110 -230 110 -26 0 0 -37 41 -58 25 -13 77 -41 116 -62 73 -39
104 -55 139 -73 312 -160 335 -176 321 -212 -3 -8 -17 -15 -31 -15 -28 0 -162
66 -275 136 -19 12 -66 39 -105 59 -38 21 -105 60 -148 86 -43 27 -85 49 -93
49 -20 0 -17 -39 4 -47 9 -4 28 -14 42 -24 14 -9 47 -29 74 -45 27 -16 69 -40
92 -54 23 -14 77 -45 119 -70 42 -25 84 -50 93 -55 10 -6 50 -30 90 -53 63
-38 72 -46 72 -72 0 -27 -3 -30 -30 -30 -40 0 -36 -2 -415 245 -168 109 -185
118 -185 95 0 -8 56 -54 111 -90 12 -8 31 -23 41 -32 10 -10 20 -18 22 -18 3
0 72 -44 153 -98 81 -54 173 -115 203 -135 100 -65 242 -73 321 -16 l29 20 52
-30 c29 -17 64 -36 78 -43 14 -7 92 -50 173 -95 82 -46 152 -83 155 -83 4 0
18 -9 32 -20 33 -26 59 -25 118 5 28 14 55 25 61 25 26 0 8 29 -26 44 -21 9
-159 78 -308 155 l-270 138 -6 71 c-5 64 -9 75 -50 125 -53 67 -133 110 -349
193 -80 30 -158 61 -175 68 -16 8 -61 26 -100 41 -38 15 -82 34 -97 41 -15 8
-29 10 -33 5z"/>
<path d="M3345 1793 c-43 -9 -152 -47 -200 -69 -49 -23 -125 -93 -158 -145
-22 -36 -31 -114 -19 -166 l9 -41 -183 -97 c-101 -53 -238 -125 -306 -160 -68
-35 -143 -75 -168 -88 -25 -13 -101 -53 -170 -89 -69 -36 -159 -83 -200 -105
-73 -39 -211 -111 -473 -247 -278 -145 -283 -148 -297 -192 -15 -45 -5 -89 27
-114 44 -34 76 -26 211 55 24 14 363 218 384 230 9 5 29 17 45 26 15 9 80 46
143 84 63 37 153 90 200 118 47 27 97 57 112 66 71 43 214 127 228 134 8 4 27
15 42 25 32 21 159 95 173 101 5 2 14 8 20 13 13 11 177 108 183 108 2 0 15 9
29 20 31 24 66 26 84 3 21 -25 115 -63 157 -63 46 0 142 36 202 74 84 54 194
176 234 258 48 100 49 154 4 203 -41 46 -107 65 -212 64 -45 -1 -90 -3 -101
-6z"/>
<path d="M2283 761 c-34 -20 -63 -39 -63 -43 0 -6 81 -52 265 -153 22 -12 58
-33 80 -45 22 -13 69 -39 105 -58 36 -19 94 -51 130 -72 92 -53 158 -80 194
-80 37 0 49 7 65 37 15 29 2 60 -41 99 -45 41 -68 55 -253 150 -88 45 -214
109 -279 143 -66 33 -125 61 -130 60 -6 -1 -39 -17 -73 -38z"/>
</g>
</svg>
